<svg width="632" height="556" viewBox="0 0 632 556" fill="none" xmlns="http://www.w3.org/2000/svg">
<g id="Shape" filter="url(#filter0_d_5_6224)">
<mask id="path-1-inside-1_5_6224" fill="white">
<path fill-rule="evenodd" clip-rule="evenodd" d="M592 0C614.091 0 632 16.7433 632 37.3973V508.603C632 529.257 614.091 546 592 546H40C17.9086 546 0 529.257 0 508.603V37.3973C0 16.7433 17.9086 0 40 0H592ZM580 460C562.327 460 548 474.327 548 492C548 509.673 562.327 524 580 524C597.673 524 612 509.673 612 492C612 474.327 597.673 460 580 460ZM492 460C474.327 460 460 474.327 460 492C460 509.673 474.327 524 492 524C509.673 524 524 509.673 524 492C524 474.327 509.673 460 492 460ZM404 460C386.327 460 372 474.327 372 492C372 509.673 386.327 524 404 524C421.673 524 436 509.673 436 492C436 474.327 421.673 460 404 460ZM228 460C210.327 460 196 474.327 196 492C196 509.673 210.327 524 228 524C245.673 524 260 509.673 260 492C260 474.327 245.673 460 228 460ZM316 460C298.327 460 284 474.327 284 492C284 509.673 298.327 524 316 524C333.673 524 348 509.673 348 492C348 474.327 333.673 460 316 460ZM140 460C122.327 460 108 474.327 108 492C108 509.673 122.327 524 140 524C157.673 524 172 509.673 172 492C172 474.504 157.958 460.287 140.529 460.004L140 460ZM52 460C34.3269 460 20 474.327 20 492C20 509.673 34.3269 524 52 524C69.6731 524 84 509.673 84 492C84 474.327 69.6731 460 52 460ZM580 372C562.327 372 548 386.327 548 404C548 421.673 562.327 436 580 436C597.673 436 612 421.673 612 404C612 386.327 597.673 372 580 372ZM492 372C474.327 372 460 386.327 460 404C460 421.673 474.327 436 492 436C509.673 436 524 421.673 524 404C524 386.327 509.673 372 492 372ZM404 372C386.327 372 372 386.327 372 404C372 421.673 386.327 436 404 436C421.673 436 436 421.673 436 404C436 386.327 421.673 372 404 372ZM316 372C298.327 372 284 386.327 284 404C284 421.673 298.327 436 316 436C333.673 436 348 421.673 348 404C348 386.327 333.673 372 316 372ZM228 372C210.327 372 196 386.327 196 404C196 421.673 210.327 436 228 436C245.673 436 260 421.673 260 404C260 386.327 245.673 372 228 372ZM140 372C122.327 372 108 386.327 108 404C108 421.673 122.327 436 140 436C157.673 436 172 421.673 172 404C172 386.327 157.673 372 140 372ZM52 372C34.3269 372 20 386.327 20 404C20 421.673 34.3269 436 52 436C69.6731 436 84 421.673 84 404C84 386.327 69.6731 372 52 372ZM52 284C34.3269 284 20 298.327 20 316C20 333.673 34.3269 348 52 348C69.6731 348 84 333.673 84 316C84 298.327 69.6731 284 52 284ZM140 284C122.327 284 108 298.327 108 316C108 333.673 122.327 348 140 348C157.673 348 172 333.673 172 316C172 298.327 157.673 284 140 284ZM228 284C210.327 284 196 298.327 196 316C196 333.673 210.327 348 228 348C245.673 348 260 333.673 260 316C260 298.327 245.673 284 228 284ZM316 284C298.327 284 284 298.327 284 316C284 333.673 298.327 348 316 348C333.673 348 348 333.673 348 316C348 298.327 333.673 284 316 284ZM404 284C386.327 284 372 298.327 372 316C372 333.673 386.327 348 404 348C421.673 348 436 333.673 436 316C436 298.327 421.673 284 404 284ZM492 284C474.327 284 460 298.327 460 316C460 333.673 474.327 348 492 348C509.673 348 524 333.673 524 316C524 298.327 509.673 284 492 284ZM580 284C562.327 284 548 298.327 548 316C548 333.673 562.327 348 580 348C597.673 348 612 333.673 612 316C612 298.327 597.673 284 580 284ZM140 196C122.327 196 108 210.327 108 228C108 245.673 122.327 260 140 260C157.673 260 172 245.673 172 228C172 210.327 157.673 196 140 196ZM228 196C210.327 196 196 210.327 196 228C196 245.673 210.327 260 228 260C245.673 260 260 245.673 260 228C260 210.327 245.673 196 228 196ZM316 196C298.327 196 284 210.327 284 228C284 245.673 298.327 260 316 260C333.673 260 348 245.673 348 228C348 210.327 333.673 196 316 196ZM404 196C386.327 196 372 210.327 372 228C372 245.673 386.327 260 404 260C421.673 260 436 245.673 436 228C436 210.327 421.673 196 404 196ZM492 196C474.327 196 460 210.327 460 228C460 245.673 474.327 260 492 260C509.673 260 524 245.673 524 228C524 210.327 509.673 196 492 196ZM580 196C562.327 196 548 210.327 548 228C548 245.673 562.327 260 580 260C597.673 260 612 245.673 612 228C612 210.327 597.673 196 580 196ZM52 196C34.3269 196 20 210.327 20 228C20 245.673 34.3269 260 52 260C69.6731 260 84 245.673 84 228C84 210.327 69.6731 196 52 196ZM580 108C562.327 108 548 122.327 548 140C548 157.673 562.327 172 580 172C597.673 172 612 157.673 612 140C612 122.327 597.673 108 580 108ZM492 108C474.327 108 460 122.327 460 140C460 157.673 474.327 172 492 172C509.673 172 524 157.673 524 140C524 122.327 509.673 108 492 108ZM404 108C386.327 108 372 122.327 372 140C372 157.673 386.327 172 404 172C421.673 172 436 157.673 436 140C436 122.327 421.673 108 404 108ZM316 108C298.327 108 284 122.327 284 140C284 157.673 298.327 172 316 172C333.673 172 348 157.673 348 140C348 122.327 333.673 108 316 108ZM228 108C210.327 108 196 122.327 196 140C196 157.673 210.327 172 228 172C245.673 172 260 157.673 260 140C260 122.327 245.673 108 228 108ZM140 108C122.327 108 108 122.327 108 140C108 157.673 122.327 172 140 172C157.673 172 172 157.673 172 140C172 122.327 157.673 108 140 108ZM52 108C34.3269 108 20 122.327 20 140C20 157.673 34.3269 172 52 172C69.6731 172 84 157.673 84 140C84 122.327 69.6731 108 52 108ZM580 20C562.327 20 548 34.3269 548 52C548 69.6731 562.327 84 580 84C597.673 84 612 69.6731 612 52C612 34.3269 597.673 20 580 20ZM492 20C474.327 20 460 34.3269 460 52C460 69.6731 474.327 84 492 84C509.673 84 524 69.6731 524 52C524 34.3269 509.673 20 492 20ZM404 20C386.327 20 372 34.3269 372 52C372 69.6731 386.327 84 404 84C421.673 84 436 69.6731 436 52C436 34.3269 421.673 20 404 20ZM316 20C298.327 20 284 34.3269 284 52C284 69.6731 298.327 84 316 84C333.673 84 348 69.6731 348 52C348 34.3269 333.673 20 316 20ZM228 20C210.327 20 196 34.3269 196 52C196 69.6731 210.327 84 228 84C245.673 84 260 69.6731 260 52C260 34.3269 245.673 20 228 20ZM140 20C122.327 20 108 34.3269 108 52C108 69.6731 122.327 84 140 84C157.673 84 172 69.6731 172 52C172 34.3269 157.673 20 140 20ZM52 20C34.3269 20 20 34.3269 20 52C20 69.6731 34.3269 84 52 84C69.6731 84 84 69.6731 84 52C84 34.3269 69.6731 20 52 20Z"/>
</mask>
<path fill-rule="evenodd" clip-rule="evenodd" d="M592 0C614.091 0 632 16.7433 632 37.3973V508.603C632 529.257 614.091 546 592 546H40C17.9086 546 0 529.257 0 508.603V37.3973C0 16.7433 17.9086 0 40 0H592ZM580 460C562.327 460 548 474.327 548 492C548 509.673 562.327 524 580 524C597.673 524 612 509.673 612 492C612 474.327 597.673 460 580 460ZM492 460C474.327 460 460 474.327 460 492C460 509.673 474.327 524 492 524C509.673 524 524 509.673 524 492C524 474.327 509.673 460 492 460ZM404 460C386.327 460 372 474.327 372 492C372 509.673 386.327 524 404 524C421.673 524 436 509.673 436 492C436 474.327 421.673 460 404 460ZM228 460C210.327 460 196 474.327 196 492C196 509.673 210.327 524 228 524C245.673 524 260 509.673 260 492C260 474.327 245.673 460 228 460ZM316 460C298.327 460 284 474.327 284 492C284 509.673 298.327 524 316 524C333.673 524 348 509.673 348 492C348 474.327 333.673 460 316 460ZM140 460C122.327 460 108 474.327 108 492C108 509.673 122.327 524 140 524C157.673 524 172 509.673 172 492C172 474.504 157.958 460.287 140.529 460.004L140 460ZM52 460C34.3269 460 20 474.327 20 492C20 509.673 34.3269 524 52 524C69.6731 524 84 509.673 84 492C84 474.327 69.6731 460 52 460ZM580 372C562.327 372 548 386.327 548 404C548 421.673 562.327 436 580 436C597.673 436 612 421.673 612 404C612 386.327 597.673 372 580 372ZM492 372C474.327 372 460 386.327 460 404C460 421.673 474.327 436 492 436C509.673 436 524 421.673 524 404C524 386.327 509.673 372 492 372ZM404 372C386.327 372 372 386.327 372 404C372 421.673 386.327 436 404 436C421.673 436 436 421.673 436 404C436 386.327 421.673 372 404 372ZM316 372C298.327 372 284 386.327 284 404C284 421.673 298.327 436 316 436C333.673 436 348 421.673 348 404C348 386.327 333.673 372 316 372ZM228 372C210.327 372 196 386.327 196 404C196 421.673 210.327 436 228 436C245.673 436 260 421.673 260 404C260 386.327 245.673 372 228 372ZM140 372C122.327 372 108 386.327 108 404C108 421.673 122.327 436 140 436C157.673 436 172 421.673 172 404C172 386.327 157.673 372 140 372ZM52 372C34.3269 372 20 386.327 20 404C20 421.673 34.3269 436 52 436C69.6731 436 84 421.673 84 404C84 386.327 69.6731 372 52 372ZM52 284C34.3269 284 20 298.327 20 316C20 333.673 34.3269 348 52 348C69.6731 348 84 333.673 84 316C84 298.327 69.6731 284 52 284ZM140 284C122.327 284 108 298.327 108 316C108 333.673 122.327 348 140 348C157.673 348 172 333.673 172 316C172 298.327 157.673 284 140 284ZM228 284C210.327 284 196 298.327 196 316C196 333.673 210.327 348 228 348C245.673 348 260 333.673 260 316C260 298.327 245.673 284 228 284ZM316 284C298.327 284 284 298.327 284 316C284 333.673 298.327 348 316 348C333.673 348 348 333.673 348 316C348 298.327 333.673 284 316 284ZM404 284C386.327 284 372 298.327 372 316C372 333.673 386.327 348 404 348C421.673 348 436 333.673 436 316C436 298.327 421.673 284 404 284ZM492 284C474.327 284 460 298.327 460 316C460 333.673 474.327 348 492 348C509.673 348 524 333.673 524 316C524 298.327 509.673 284 492 284ZM580 284C562.327 284 548 298.327 548 316C548 333.673 562.327 348 580 348C597.673 348 612 333.673 612 316C612 298.327 597.673 284 580 284ZM140 196C122.327 196 108 210.327 108 228C108 245.673 122.327 260 140 260C157.673 260 172 245.673 172 228C172 210.327 157.673 196 140 196ZM228 196C210.327 196 196 210.327 196 228C196 245.673 210.327 260 228 260C245.673 260 260 245.673 260 228C260 210.327 245.673 196 228 196ZM316 196C298.327 196 284 210.327 284 228C284 245.673 298.327 260 316 260C333.673 260 348 245.673 348 228C348 210.327 333.673 196 316 196ZM404 196C386.327 196 372 210.327 372 228C372 245.673 386.327 260 404 260C421.673 260 436 245.673 436 228C436 210.327 421.673 196 404 196ZM492 196C474.327 196 460 210.327 460 228C460 245.673 474.327 260 492 260C509.673 260 524 245.673 524 228C524 210.327 509.673 196 492 196ZM580 196C562.327 196 548 210.327 548 228C548 245.673 562.327 260 580 260C597.673 260 612 245.673 612 228C612 210.327 597.673 196 580 196ZM52 196C34.3269 196 20 210.327 20 228C20 245.673 34.3269 260 52 260C69.6731 260 84 245.673 84 228C84 210.327 69.6731 196 52 196ZM580 108C562.327 108 548 122.327 548 140C548 157.673 562.327 172 580 172C597.673 172 612 157.673 612 140C612 122.327 597.673 108 580 108ZM492 108C474.327 108 460 122.327 460 140C460 157.673 474.327 172 492 172C509.673 172 524 157.673 524 140C524 122.327 509.673 108 492 108ZM404 108C386.327 108 372 122.327 372 140C372 157.673 386.327 172 404 172C421.673 172 436 157.673 436 140C436 122.327 421.673 108 404 108ZM316 108C298.327 108 284 122.327 284 140C284 157.673 298.327 172 316 172C333.673 172 348 157.673 348 140C348 122.327 333.673 108 316 108ZM228 108C210.327 108 196 122.327 196 140C196 157.673 210.327 172 228 172C245.673 172 260 157.673 260 140C260 122.327 245.673 108 228 108ZM140 108C122.327 108 108 122.327 108 140C108 157.673 122.327 172 140 172C157.673 172 172 157.673 172 140C172 122.327 157.673 108 140 108ZM52 108C34.3269 108 20 122.327 20 140C20 157.673 34.3269 172 52 172C69.6731 172 84 157.673 84 140C84 122.327 69.6731 108 52 108ZM580 20C562.327 20 548 34.3269 548 52C548 69.6731 562.327 84 580 84C597.673 84 612 69.6731 612 52C612 34.3269 597.673 20 580 20ZM492 20C474.327 20 460 34.3269 460 52C460 69.6731 474.327 84 492 84C509.673 84 524 69.6731 524 52C524 34.3269 509.673 20 492 20ZM404 20C386.327 20 372 34.3269 372 52C372 69.6731 386.327 84 404 84C421.673 84 436 69.6731 436 52C436 34.3269 421.673 20 404 20ZM316 20C298.327 20 284 34.3269 284 52C284 69.6731 298.327 84 316 84C333.673 84 348 69.6731 348 52C348 34.3269 333.673 20 316 20ZM228 20C210.327 20 196 34.3269 196 52C196 69.6731 210.327 84 228 84C245.673 84 260 69.6731 260 52C260 34.3269 245.673 20 228 20ZM140 20C122.327 20 108 34.3269 108 52C108 69.6731 122.327 84 140 84C157.673 84 172 69.6731 172 52C172 34.3269 157.673 20 140 20ZM52 20C34.3269 20 20 34.3269 20 52C20 69.6731 34.3269 84 52 84C69.6731 84 84 69.6731 84 52C84 34.3269 69.6731 20 52 20Z" fill="black"/>
<path d="M140 460L140.024 457L140.012 457H140V460ZM140.529 460.004L140.578 457.005L140.566 457.004L140.553 457.004L140.529 460.004ZM592 0V3C612.628 3 629 18.5871 629 37.3973H632H635C635 14.8995 615.555 -3 592 -3V0ZM632 37.3973H629V508.603H632H635V37.3973H632ZM632 508.603H629C629 527.413 612.628 543 592 543V546V549C615.555 549 635 531.1 635 508.603H632ZM592 546V543H40V546V549H592V546ZM40 546V543C19.3721 543 3 527.413 3 508.603H0H-3C-3 531.1 16.4451 549 40 549V546ZM0 508.603H3V37.3973H0H-3V508.603H0ZM0 37.3973H3C3 18.5871 19.3721 3 40 3V0V-3C16.4451 -3 -3 14.8995 -3 37.3973H0ZM40 0V3H592V0V-3H40V0ZM580 460V457C560.67 457 545 472.67 545 492H548H551C551 475.984 563.984 463 580 463V460ZM548 492H545C545 511.33 560.67 527 580 527V524V521C563.984 521 551 508.016 551 492H548ZM580 524V527C599.33 527 615 511.33 615 492H612H609C609 508.016 596.016 521 580 521V524ZM612 492H615C615 472.67 599.33 457 580 457V460V463C596.016 463 609 475.984 609 492H612ZM492 460V457C472.67 457 457 472.67 457 492H460H463C463 475.984 475.984 463 492 463V460ZM460 492H457C457 511.33 472.67 527 492 527V524V521C475.984 521 463 508.016 463 492H460ZM492 524V527C511.33 527 527 511.33 527 492H524H521C521 508.016 508.016 521 492 521V524ZM524 492H527C527 472.67 511.33 457 492 457V460V463C508.016 463 521 475.984 521 492H524ZM404 460V457C384.67 457 369 472.67 369 492H372H375C375 475.984 387.984 463 404 463V460ZM372 492H369C369 511.33 384.67 527 404 527V524V521C387.984 521 375 508.016 375 492H372ZM404 524V527C423.33 527 439 511.33 439 492H436H433C433 508.016 420.016 521 404 521V524ZM436 492H439C439 472.67 423.33 457 404 457V460V463C420.016 463 433 475.984 433 492H436ZM228 460V457C208.67 457 193 472.67 193 492H196H199C199 475.984 211.984 463 228 463V460ZM196 492H193C193 511.33 208.67 527 228 527V524V521C211.984 521 199 508.016 199 492H196ZM228 524V527C247.33 527 263 511.33 263 492H260H257C257 508.016 244.016 521 228 521V524ZM260 492H263C263 472.67 247.33 457 228 457V460V463C244.016 463 257 475.984 257 492H260ZM316 460V457C296.67 457 281 472.67 281 492H284H287C287 475.984 299.984 463 316 463V460ZM284 492H281C281 511.33 296.67 527 316 527V524V521C299.984 521 287 508.016 287 492H284ZM316 524V527C335.33 527 351 511.33 351 492H348H345C345 508.016 332.016 521 316 521V524ZM348 492H351C351 472.67 335.33 457 316 457V460V463C332.016 463 345 475.984 345 492H348ZM140 460V457C120.67 457 105 472.67 105 492H108H111C111 475.984 123.984 463 140 463V460ZM108 492H105C105 511.33 120.67 527 140 527V524V521C123.984 521 111 508.016 111 492H108ZM140 524V527C159.33 527 175 511.33 175 492H172H169C169 508.016 156.016 521 140 521V524ZM172 492H175C175 472.863 159.642 457.314 140.578 457.005L140.529 460.004L140.481 463.004C156.275 463.26 169 476.144 169 492H172ZM140.529 460.004L140.553 457.004L140.024 457L140 460L139.976 463L140.505 463.004L140.529 460.004ZM52 460V457C32.67 457 17 472.67 17 492H20H23C23 475.984 35.9837 463 52 463V460ZM20 492H17C17 511.33 32.67 527 52 527V524V521C35.9837 521 23 508.016 23 492H20ZM52 524V527C71.33 527 87 511.33 87 492H84H81C81 508.016 68.0163 521 52 521V524ZM84 492H87C87 472.67 71.33 457 52 457V460V463C68.0163 463 81 475.984 81 492H84ZM580 372V369C560.67 369 545 384.67 545 404H548H551C551 387.984 563.984 375 580 375V372ZM548 404H545C545 423.33 560.67 439 580 439V436V433C563.984 433 551 420.016 551 404H548ZM580 436V439C599.33 439 615 423.33 615 404H612H609C609 420.016 596.016 433 580 433V436ZM612 404H615C615 384.67 599.33 369 580 369V372V375C596.016 375 609 387.984 609 404H612ZM492 372V369C472.67 369 457 384.67 457 404H460H463C463 387.984 475.984 375 492 375V372ZM460 404H457C457 423.33 472.67 439 492 439V436V433C475.984 433 463 420.016 463 404H460ZM492 436V439C511.33 439 527 423.33 527 404H524H521C521 420.016 508.016 433 492 433V436ZM524 404H527C527 384.67 511.33 369 492 369V372V375C508.016 375 521 387.984 521 404H524ZM404 372V369C384.67 369 369 384.67 369 404H372H375C375 387.984 387.984 375 404 375V372ZM372 404H369C369 423.33 384.67 439 404 439V436V433C387.984 433 375 420.016 375 404H372ZM404 436V439C423.33 439 439 423.33 439 404H436H433C433 420.016 420.016 433 404 433V436ZM436 404H439C439 384.67 423.33 369 404 369V372V375C420.016 375 433 387.984 433 404H436ZM316 372V369C296.67 369 281 384.67 281 404H284H287C287 387.984 299.984 375 316 375V372ZM284 404H281C281 423.33 296.67 439 316 439V436V433C299.984 433 287 420.016 287 404H284ZM316 436V439C335.33 439 351 423.33 351 404H348H345C345 420.016 332.016 433 316 433V436ZM348 404H351C351 384.67 335.33 369 316 369V372V375C332.016 375 345 387.984 345 404H348ZM228 372V369C208.67 369 193 384.67 193 404H196H199C199 387.984 211.984 375 228 375V372ZM196 404H193C193 423.33 208.67 439 228 439V436V433C211.984 433 199 420.016 199 404H196ZM228 436V439C247.33 439 263 423.33 263 404H260H257C257 420.016 244.016 433 228 433V436ZM260 404H263C263 384.67 247.33 369 228 369V372V375C244.016 375 257 387.984 257 404H260ZM140 372V369C120.67 369 105 384.67 105 404H108H111C111 387.984 123.984 375 140 375V372ZM108 404H105C105 423.33 120.67 439 140 439V436V433C123.984 433 111 420.016 111 404H108ZM140 436V439C159.33 439 175 423.33 175 404H172H169C169 420.016 156.016 433 140 433V436ZM172 404H175C175 384.67 159.33 369 140 369V372V375C156.016 375 169 387.984 169 404H172ZM52 372V369C32.67 369 17 384.67 17 404H20H23C23 387.984 35.9837 375 52 375V372ZM20 404H17C17 423.33 32.67 439 52 439V436V433C35.9837 433 23 420.016 23 404H20ZM52 436V439C71.33 439 87 423.33 87 404H84H81C81 420.016 68.0163 433 52 433V436ZM84 404H87C87 384.67 71.33 369 52 369V372V375C68.0163 375 81 387.984 81 404H84ZM52 284V281C32.67 281 17 296.67 17 316H20H23C23 299.984 35.9837 287 52 287V284ZM20 316H17C17 335.33 32.67 351 52 351V348V345C35.9837 345 23 332.016 23 316H20ZM52 348V351C71.33 351 87 335.33 87 316H84H81C81 332.016 68.0163 345 52 345V348ZM84 316H87C87 296.67 71.33 281 52 281V284V287C68.0163 287 81 299.984 81 316H84ZM140 284V281C120.67 281 105 296.67 105 316H108H111C111 299.984 123.984 287 140 287V284ZM108 316H105C105 335.33 120.67 351 140 351V348V345C123.984 345 111 332.016 111 316H108ZM140 348V351C159.33 351 175 335.33 175 316H172H169C169 332.016 156.016 345 140 345V348ZM172 316H175C175 296.67 159.33 281 140 281V284V287C156.016 287 169 299.984 169 316H172ZM228 284V281C208.67 281 193 296.67 193 316H196H199C199 299.984 211.984 287 228 287V284ZM196 316H193C193 335.33 208.67 351 228 351V348V345C211.984 345 199 332.016 199 316H196ZM228 348V351C247.33 351 263 335.33 263 316H260H257C257 332.016 244.016 345 228 345V348ZM260 316H263C263 296.67 247.33 281 228 281V284V287C244.016 287 257 299.984 257 316H260ZM316 284V281C296.67 281 281 296.67 281 316H284H287C287 299.984 299.984 287 316 287V284ZM284 316H281C281 335.33 296.67 351 316 351V348V345C299.984 345 287 332.016 287 316H284ZM316 348V351C335.33 351 351 335.33 351 316H348H345C345 332.016 332.016 345 316 345V348ZM348 316H351C351 296.67 335.33 281 316 281V284V287C332.016 287 345 299.984 345 316H348ZM404 284V281C384.67 281 369 296.67 369 316H372H375C375 299.984 387.984 287 404 287V284ZM372 316H369C369 335.33 384.67 351 404 351V348V345C387.984 345 375 332.016 375 316H372ZM404 348V351C423.33 351 439 335.33 439 316H436H433C433 332.016 420.016 345 404 345V348ZM436 316H439C439 296.67 423.33 281 404 281V284V287C420.016 287 433 299.984 433 316H436ZM492 284V281C472.67 281 457 296.67 457 316H460H463C463 299.984 475.984 287 492 287V284ZM460 316H457C457 335.33 472.67 351 492 351V348V345C475.984 345 463 332.016 463 316H460ZM492 348V351C511.33 351 527 335.33 527 316H524H521C521 332.016 508.016 345 492 345V348ZM524 316H527C527 296.67 511.33 281 492 281V284V287C508.016 287 521 299.984 521 316H524ZM580 284V281C560.67 281 545 296.67 545 316H548H551C551 299.984 563.984 287 580 287V284ZM548 316H545C545 335.33 560.67 351 580 351V348V345C563.984 345 551 332.016 551 316H548ZM580 348V351C599.33 351 615 335.33 615 316H612H609C609 332.016 596.016 345 580 345V348ZM612 316H615C615 296.67 599.33 281 580 281V284V287C596.016 287 609 299.984 609 316H612ZM140 196V193C120.67 193 105 208.67 105 228H108H111C111 211.984 123.984 199 140 199V196ZM108 228H105C105 247.33 120.67 263 140 263V260V257C123.984 257 111 244.016 111 228H108ZM140 260V263C159.33 263 175 247.33 175 228H172H169C169 244.016 156.016 257 140 257V260ZM172 228H175C175 208.67 159.33 193 140 193V196V199C156.016 199 169 211.984 169 228H172ZM228 196V193C208.67 193 193 208.67 193 228H196H199C199 211.984 211.984 199 228 199V196ZM196 228H193C193 247.33 208.67 263 228 263V260V257C211.984 257 199 244.016 199 228H196ZM228 260V263C247.33 263 263 247.33 263 228H260H257C257 244.016 244.016 257 228 257V260ZM260 228H263C263 208.67 247.33 193 228 193V196V199C244.016 199 257 211.984 257 228H260ZM316 196V193C296.67 193 281 208.67 281 228H284H287C287 211.984 299.984 199 316 199V196ZM284 228H281C281 247.33 296.67 263 316 263V260V257C299.984 257 287 244.016 287 228H284ZM316 260V263C335.33 263 351 247.33 351 228H348H345C345 244.016 332.016 257 316 257V260ZM348 228H351C351 208.67 335.33 193 316 193V196V199C332.016 199 345 211.984 345 228H348ZM404 196V193C384.67 193 369 208.67 369 228H372H375C375 211.984 387.984 199 404 199V196ZM372 228H369C369 247.33 384.67 263 404 263V260V257C387.984 257 375 244.016 375 228H372ZM404 260V263C423.33 263 439 247.33 439 228H436H433C433 244.016 420.016 257 404 257V260ZM436 228H439C439 208.67 423.33 193 404 193V196V199C420.016 199 433 211.984 433 228H436ZM492 196V193C472.67 193 457 208.67 457 228H460H463C463 211.984 475.984 199 492 199V196ZM460 228H457C457 247.33 472.67 263 492 263V260V257C475.984 257 463 244.016 463 228H460ZM492 260V263C511.33 263 527 247.33 527 228H524H521C521 244.016 508.016 257 492 257V260ZM524 228H527C527 208.67 511.33 193 492 193V196V199C508.016 199 521 211.984 521 228H524ZM580 196V193C560.67 193 545 208.67 545 228H548H551C551 211.984 563.984 199 580 199V196ZM548 228H545C545 247.33 560.67 263 580 263V260V257C563.984 257 551 244.016 551 228H548ZM580 260V263C599.33 263 615 247.33 615 228H612H609C609 244.016 596.016 257 580 257V260ZM612 228H615C615 208.67 599.33 193 580 193V196V199C596.016 199 609 211.984 609 228H612ZM52 196V193C32.67 193 17 208.67 17 228H20H23C23 211.984 35.9837 199 52 199V196ZM20 228H17C17 247.33 32.67 263 52 263V260V257C35.9837 257 23 244.016 23 228H20ZM52 260V263C71.33 263 87 247.33 87 228H84H81C81 244.016 68.0163 257 52 257V260ZM84 228H87C87 208.67 71.33 193 52 193V196V199C68.0163 199 81 211.984 81 228H84ZM580 108V105C560.67 105 545 120.67 545 140H548H551C551 123.984 563.984 111 580 111V108ZM548 140H545C545 159.33 560.67 175 580 175V172V169C563.984 169 551 156.016 551 140H548ZM580 172V175C599.33 175 615 159.33 615 140H612H609C609 156.016 596.016 169 580 169V172ZM612 140H615C615 120.67 599.33 105 580 105V108V111C596.016 111 609 123.984 609 140H612ZM492 108V105C472.67 105 457 120.67 457 140H460H463C463 123.984 475.984 111 492 111V108ZM460 140H457C457 159.33 472.67 175 492 175V172V169C475.984 169 463 156.016 463 140H460ZM492 172V175C511.33 175 527 159.33 527 140H524H521C521 156.016 508.016 169 492 169V172ZM524 140H527C527 120.67 511.33 105 492 105V108V111C508.016 111 521 123.984 521 140H524ZM404 108V105C384.67 105 369 120.67 369 140H372H375C375 123.984 387.984 111 404 111V108ZM372 140H369C369 159.33 384.67 175 404 175V172V169C387.984 169 375 156.016 375 140H372ZM404 172V175C423.33 175 439 159.33 439 140H436H433C433 156.016 420.016 169 404 169V172ZM436 140H439C439 120.67 423.33 105 404 105V108V111C420.016 111 433 123.984 433 140H436ZM316 108V105C296.67 105 281 120.67 281 140H284H287C287 123.984 299.984 111 316 111V108ZM284 140H281C281 159.33 296.67 175 316 175V172V169C299.984 169 287 156.016 287 140H284ZM316 172V175C335.33 175 351 159.33 351 140H348H345C345 156.016 332.016 169 316 169V172ZM348 140H351C351 120.67 335.33 105 316 105V108V111C332.016 111 345 123.984 345 140H348ZM228 108V105C208.67 105 193 120.67 193 140H196H199C199 123.984 211.984 111 228 111V108ZM196 140H193C193 159.33 208.67 175 228 175V172V169C211.984 169 199 156.016 199 140H196ZM228 172V175C247.33 175 263 159.33 263 140H260H257C257 156.016 244.016 169 228 169V172ZM260 140H263C263 120.67 247.33 105 228 105V108V111C244.016 111 257 123.984 257 140H260ZM140 108V105C120.67 105 105 120.67 105 140H108H111C111 123.984 123.984 111 140 111V108ZM108 140H105C105 159.33 120.67 175 140 175V172V169C123.984 169 111 156.016 111 140H108ZM140 172V175C159.33 175 175 159.33 175 140H172H169C169 156.016 156.016 169 140 169V172ZM172 140H175C175 120.67 159.33 105 140 105V108V111C156.016 111 169 123.984 169 140H172ZM52 108V105C32.67 105 17 120.67 17 140H20H23C23 123.984 35.9837 111 52 111V108ZM20 140H17C17 159.33 32.67 175 52 175V172V169C35.9837 169 23 156.016 23 140H20ZM52 172V175C71.33 175 87 159.33 87 140H84H81C81 156.016 68.0163 169 52 169V172ZM84 140H87C87 120.67 71.33 105 52 105V108V111C68.0163 111 81 123.984 81 140H84ZM580 20V17C560.67 17 545 32.67 545 52H548H551C551 35.9837 563.984 23 580 23V20ZM548 52H545C545 71.33 560.67 87 580 87V84V81C563.984 81 551 68.0163 551 52H548ZM580 84V87C599.33 87 615 71.33 615 52H612H609C609 68.0163 596.016 81 580 81V84ZM612 52H615C615 32.67 599.33 17 580 17V20V23C596.016 23 609 35.9837 609 52H612ZM492 20V17C472.67 17 457 32.67 457 52H460H463C463 35.9837 475.984 23 492 23V20ZM460 52H457C457 71.33 472.67 87 492 87V84V81C475.984 81 463 68.0163 463 52H460ZM492 84V87C511.33 87 527 71.33 527 52H524H521C521 68.0163 508.016 81 492 81V84ZM524 52H527C527 32.67 511.33 17 492 17V20V23C508.016 23 521 35.9837 521 52H524ZM404 20V17C384.67 17 369 32.67 369 52H372H375C375 35.9837 387.984 23 404 23V20ZM372 52H369C369 71.33 384.67 87 404 87V84V81C387.984 81 375 68.0163 375 52H372ZM404 84V87C423.33 87 439 71.33 439 52H436H433C433 68.0163 420.016 81 404 81V84ZM436 52H439C439 32.67 423.33 17 404 17V20V23C420.016 23 433 35.9837 433 52H436ZM316 20V17C296.67 17 281 32.67 281 52H284H287C287 35.9837 299.984 23 316 23V20ZM284 52H281C281 71.33 296.67 87 316 87V84V81C299.984 81 287 68.0163 287 52H284ZM316 84V87C335.33 87 351 71.33 351 52H348H345C345 68.0163 332.016 81 316 81V84ZM348 52H351C351 32.67 335.33 17 316 17V20V23C332.016 23 345 35.9837 345 52H348ZM228 20V17C208.67 17 193 32.67 193 52H196H199C199 35.9837 211.984 23 228 23V20ZM196 52H193C193 71.33 208.67 87 228 87V84V81C211.984 81 199 68.0163 199 52H196ZM228 84V87C247.33 87 263 71.33 263 52H260H257C257 68.0163 244.016 81 228 81V84ZM260 52H263C263 32.67 247.33 17 228 17V20V23C244.016 23 257 35.9837 257 52H260ZM140 20V17C120.67 17 105 32.67 105 52H108H111C111 35.9837 123.984 23 140 23V20ZM108 52H105C105 71.33 120.67 87 140 87V84V81C123.984 81 111 68.0163 111 52H108ZM140 84V87C159.33 87 175 71.33 175 52H172H169C169 68.0163 156.016 81 140 81V84ZM172 52H175C175 32.67 159.33 17 140 17V20V23C156.016 23 169 35.9837 169 52H172ZM52 20V17C32.67 17 17 32.67 17 52H20H23C23 35.9837 35.9837 23 52 23V20ZM20 52H17C17 71.33 32.67 87 52 87V84V81C35.9837 81 23 68.0163 23 52H20ZM52 84V87C71.33 87 87 71.33 87 52H84H81C81 68.0163 68.0163 81 52 81V84ZM84 52H87C87 32.67 71.33 17 52 17V20V23C68.0163 23 81 35.9837 81 52H84Z" fill="black" mask="url(#path-1-inside-1_5_6224)"/>
</g>
<defs>
<filter id="filter0_d_5_6224" x="0" y="0" width="632" height="556" filterUnits="userSpaceOnUse" color-interpolation-filters="sRGB">
<feFlood flood-opacity="0" result="BackgroundImageFix"/>
<feColorMatrix in="SourceAlpha" type="matrix" values="0 0 0 0 0 0 0 0 0 0 0 0 0 0 0 0 0 0 127 0" result="hardAlpha"/>
<feOffset dy="10"/>
<feColorMatrix type="matrix" values="0 0 0 0 0 0 0 0 0 0 0 0 0 0 0 0 0 0 1 0"/>
<feBlend mode="normal" in2="BackgroundImageFix" result="effect1_dropShadow_5_6224"/>
<feBlend mode="normal" in="SourceGraphic" in2="effect1_dropShadow_5_6224" result="shape"/>
</filter>
</defs>
</svg>
